<?xml version="1.0" standalone="no"?><!DOCTYPE svg PUBLIC "-//W3C//DTD SVG 1.1//EN" "http://www.w3.org/Graphics/SVG/1.1/DTD/svg11.dtd"><svg t="1706261257046" class="icon" viewBox="0 0 1025 1024" version="1.1" xmlns="http://www.w3.org/2000/svg" p-id="16020" xmlns:xlink="http://www.w3.org/1999/xlink" width="200.1953125" height="200"><path d="M1024.049737 393.508571a36.571429 36.571429 0 0 0-29.257143-24.868571l-311.588571-44.617143L544.232594 42.422857a37.302857 37.302857 0 0 0-64.365714 0l-138.971429 281.6L30.769737 365.714286a36.571429 36.571429 0 0 0-29.257143 24.868571 36.571429 36.571429 0 0 0 9.508572 36.571429l224.548571 219.428571-53.394286 311.588572a36.571429 36.571429 0 0 0 14.628572 35.108571 35.108571 35.108571 0 0 0 21.211428 6.582857 33.645714 33.645714 0 0 0 16.091429-4.388571l277.942857-146.285715 277.942857 146.285715a34.377143 34.377143 0 0 0 37.302857 0 36.571429 36.571429 0 0 0 14.628572-35.108572l-53.394286-309.394285 224.548572-219.428572a36.571429 36.571429 0 0 0 10.971428-38.034286z" fill="#ffffff" p-id="16021"></path></svg>