<svg t="1718853048730" class="icon" viewBox="0 0 1024 1024" version="1.1" xmlns="http://www.w3.org/2000/svg" p-id="4314" width="256" height="256"><path d="M331.1 987.979c-8.9 0-17.7-3.4-24.5-10.2-13.5-13.5-13.5-35.5 0-49l123.6-123.6c33.8-33.8 78.8-52.5 126.6-52.5h118c79.2 0 143.7-64.5 143.7-143.7v-228.8c0-79.2-64.5-143.7-143.7-143.7h-461.8c-79.2 0-143.7 64.5-143.7 143.7v228.8c0 79.2 64.5 143.7 143.7 143.7h64.4c19.1 0 34.6 15.5 34.6 34.6s-15.5 34.6-34.6 34.6h-64.4c-117.5 0-213-95.5-213-213v-228.7c0-117.4 95.6-213 213-213h461.8c117.4 0 213 95.5 213 213v228.8c0 117.5-95.5 213-213 213h-118c-29.3 0-56.9 11.4-77.7 32.2l-123.6 123.6c-6.6 6.9-15.5 10.2-24.4 10.2z" fill="#ffffff" p-id="4315"></path><path d="M280.1 508.879m-43.9 0a43.9 43.9 0 1 0 87.8 0 43.9 43.9 0 1 0-87.8 0Z" fill="#ffffff" p-id="4316"></path><path d="M444 508.879m-43.9 0a43.9 43.9 0 1 0 87.8 0 43.9 43.9 0 1 0-87.8 0Z" fill="#ffffff" p-id="4317"></path><path d="M608 508.879m-43.9 0a43.9 43.9 0 1 0 87.8 0 43.9 43.9 0 1 0-87.8 0Z" fill="#ffffff" p-id="4318"></path><path d="M989.5 532.579c-19.1 0-34.6-15.5-34.6-34.6v-137.7c0-140.6-114.4-255-255-255h-264.8c-19.1 0-34.6-15.5-34.6-34.6s15.5-34.6 34.6-34.6h264.7c178.8 0 324.3 145.5 324.3 324.3v137.7c0 19-15.5 34.5-34.6 34.5z" fill="#ffffff" p-id="4319"></path></svg>