<?xml version="1.0" standalone="no"?><!DOCTYPE svg PUBLIC "-//W3C//DTD SVG 1.1//EN" "http://www.w3.org/Graphics/SVG/1.1/DTD/svg11.dtd"><svg t="1703423933898" class="icon" viewBox="0 0 1024 1024" version="1.1" xmlns="http://www.w3.org/2000/svg" p-id="1910" xmlns:xlink="http://www.w3.org/1999/xlink" width="200" height="200"><path d="M907.636364 418.909091a124.276364 124.276364 0 0 0-101.934546-52.829091h-162.909091l36.072728-153.134545V209.454545a139.636364 139.636364 0 0 0-40.727273-98.676363A136.145455 136.145455 0 0 0 538.298182 69.818182a138.24 138.24 0 0 0-134.516364 134.981818l-3.490909 15.592727a186.181818 186.181818 0 0 1-180.829091 145.454546A128 128 0 0 0 93.090909 494.778182v330.472727A127.767273 127.767273 0 0 0 219.461818 954.181818h482.909091a126.370909 126.370909 0 0 0 120.32-90.065454l102.167273-330.24A130.094545 130.094545 0 0 0 907.636364 418.909091z" p-id="1911" fill="#ffffff"></path></svg>