<?xml version="1.0" standalone="no"?><!DOCTYPE svg PUBLIC "-//W3C//DTD SVG 1.1//EN" "http://www.w3.org/Graphics/SVG/1.1/DTD/svg11.dtd"><svg t="1703359538955" class="icon" viewBox="0 0 1025 1024" version="1.1" xmlns="http://www.w3.org/2000/svg" p-id="1690" xmlns:xlink="http://www.w3.org/1999/xlink" width="200.1953125" height="200"><path d="M1023.872465 352.581818c-9.541818-45.149091-61.44-68.421818-158.952727-71.68A398.196364 398.196364 0 0 0 517.225193 69.818182c-209.454545 0-381.672727 169.192727-399.592728 383.767273-87.970909 46.545455-125.207273 89.832727-116.363636 134.981818s57.018182 66.792727 149.178182 71.214545v1.629091a1219.490909 1219.490909 0 0 0 231.098182-17.221818c51.432727-7.68 105.192727-17.687273 159.883636-30.487273a1689.134545 1689.134545 0 0 0 337.687273-112.174545c109.847273-51.898182 155.229091-99.141818 144.756363-148.945455zM71.087011 572.741818a153.134545 153.134545 0 0 1 46.545454-38.632727 435.432727 435.432727 0 0 0 9.076364 52.596364 142.894545 142.894545 0 0 1-55.621818-13.963637z m837.818182-166.632727a465.454545 465.454545 0 0 0-12.8-51.665455 147.316364 147.316364 0 0 1 58.647272 13.963637A149.876364 149.876364 0 0 1 908.905193 406.109091zM541.894284 677.003636a1686.109091 1686.109091 0 0 1-350.487273 46.545455h-5.585455A395.636364 395.636364 0 0 0 517.225193 907.636364c202.24 0 369.338182-157.323636 395.636363-360.727273-10.938182 6.050909-23.272727 12.101818-35.141818 18.152727a1698.909091 1698.909091 0 0 1-335.825454 111.941818z" p-id="1691" data-spm-anchor-id="a313x.collections_detail.0.i2.7ac53a81m4SJWY" class="selected" fill="#ffffff"></path></svg>