<?xml version="1.0" standalone="no"?><!DOCTYPE svg PUBLIC "-//W3C//DTD SVG 1.1//EN" "http://www.w3.org/Graphics/SVG/1.1/DTD/svg11.dtd"><svg t="1703311148811" class="icon" viewBox="0 0 1024 1024" version="1.1" xmlns="http://www.w3.org/2000/svg" p-id="1541" xmlns:xlink="http://www.w3.org/1999/xlink" width="200" height="200"><path d="M831.069091 472.669091L651.636364 399.127273a93.090909 93.090909 0 0 1-50.269091-48.872728l-79.127273-181.294545a66.792727 66.792727 0 0 0-121.716364 0L323.025455 349.090909a93.090909 93.090909 0 0 1-50.269091 48.64l-184.552728 74.938182a63.534545 63.534545 0 0 0 0 118.458182l186.181819 76.101818a93.090909 93.090909 0 0 1 51.432727 48.872727l75.869091 175.476364a66.792727 66.792727 0 0 0 121.716363 0l76.334546-177.105455a93.090909 93.090909 0 0 1 50.269091-48.872727l182.225454-74.472727a63.767273 63.767273 0 0 0-1.163636-118.458182zM970.472727 221.789091l-75.403636-30.72a27.927273 27.927273 0 0 1-15.127273-14.894546l-32.581818-75.170909a13.498182 13.498182 0 0 0-23.272727 0L791.272727 175.709091a27.927273 27.927273 0 0 1-15.127272 14.894545L698.181818 221.789091a12.8 12.8 0 0 0 0 23.272727l77.265455 31.650909a27.927273 27.927273 0 0 1 15.36 14.661818l31.650909 73.309091a13.265455 13.265455 0 0 0 23.272727 0l31.883636-73.774545a28.392727 28.392727 0 0 1 15.36-14.894546l75.869091-30.952727a12.8 12.8 0 0 0 1.629091-23.272727zM904.843636 796.392727l-68.189091-23.272727-24.66909-66.094545a9.774545 9.774545 0 0 0-18.152728 0L768 772.421818l-67.956364 23.272727a9.309091 9.309091 0 0 0 0 17.687273L768 837.818182l24.901818 66.094545a9.774545 9.774545 0 0 0 18.152727 0L837.818182 837.818182l68.189091-23.272727a9.309091 9.309091 0 0 0-1.163637-18.152728z" p-id="1542" fill="#ffffff"></path></svg>