<?xml version="1.0" standalone="no"?><!DOCTYPE svg PUBLIC "-//W3C//DTD SVG 1.1//EN" "http://www.w3.org/Graphics/SVG/1.1/DTD/svg11.dtd"><svg t="1703423996279" class="icon" viewBox="0 0 1024 1024" version="1.1" xmlns="http://www.w3.org/2000/svg" p-id="2092" xmlns:xlink="http://www.w3.org/1999/xlink" width="200" height="200"><path d="M283.927273 664.203636a35.607273 35.607273 0 0 1-17.454546 4.654546 34.909091 34.909091 0 0 1-17.454545-65.163637l72.145454-41.658181-44.450909-25.6a112.407273 112.407273 0 0 1-46.545454-151.272728 102.865455 102.865455 0 0 1 69.818182-49.105454 118.690909 118.690909 0 0 1 61.672727 4.189091V116.363636h-186.181818A127.767273 127.767273 0 0 0 46.545455 244.130909v535.272727A127.767273 127.767273 0 0 0 174.312727 907.636364h186.181818V619.752727z" p-id="2093" fill="#ffffff"></path><path d="M313.018182 404.48a33.978182 33.978182 0 0 0-23.272727 15.592727 42.821818 42.821818 0 0 0 21.643636 55.854546l49.105454 28.392727v-89.367273a31.418182 31.418182 0 0 1-11.636363-3.956363 50.269091 50.269091 0 0 0-35.84-6.516364zM849.92 116.363636h-418.909091v221.323637a119.156364 119.156364 0 0 1 52.829091-1.861818 103.098182 103.098182 0 0 1 69.818182 49.105454 101.701818 101.701818 0 0 1 7.912727 84.712727 121.483636 121.483636 0 0 1-55.854545 65.629091l-44.916364 26.763637L533.178182 605.090909a34.909091 34.909091 0 0 1-17.454546 65.163636 37.003636 37.003636 0 0 1-17.454545-4.654545l-67.723636-40.261818V907.636364h418.90909a127.767273 127.767273 0 0 0 128-127.767273v-535.272727A127.767273 127.767273 0 0 0 849.92 116.363636z" p-id="2094" fill="#ffffff"></path><path d="M494.312727 447.767273a33.978182 33.978182 0 0 0-2.094545-27.927273 33.28 33.28 0 0 0-23.272727-15.592727 49.803636 49.803636 0 0 0-35.84 6.516363l-2.792728 1.163637v86.807272l40.261818-23.272727a51.665455 51.665455 0 0 0 23.738182-27.694545z" p-id="2095" fill="#ffffff"></path></svg>