<?xml version="1.0" standalone="no"?><!DOCTYPE svg PUBLIC "-//W3C//DTD SVG 1.1//EN" "http://www.w3.org/Graphics/SVG/1.1/DTD/svg11.dtd"><svg t="1703311513183" class="icon" viewBox="0 0 1024 1024" version="1.1" xmlns="http://www.w3.org/2000/svg" p-id="1826" xmlns:xlink="http://www.w3.org/1999/xlink" width="200" height="200"><path d="M804.305455 186.181818A405.410909 405.410909 0 0 0 512 69.818182 415.883636 415.883636 0 0 0 109.614545 498.269091a421.701818 421.701818 0 0 0 40.494546 171.752727L107.52 744.727273a108.450909 108.450909 0 0 0 0 108.916363A105.192727 105.192727 0 0 0 199.912727 907.636364L558.545455 905.541818h3.258181A421.236364 421.236364 0 0 0 804.305455 186.181818z m-156.392728 241.803637a151.738182 151.738182 0 0 1-148.247272 124.50909 148.48 148.48 0 0 1-119.854546-60.50909 34.909091 34.909091 0 1 1 55.854546-41.89091 79.36 79.36 0 0 0 64 32.581819 82.152727 82.152727 0 0 0 79.825454-67.723637 34.909091 34.909091 0 0 1 68.421818 13.032728z" p-id="1827"></path></svg>