<?xml version="1.0" standalone="no"?><!DOCTYPE svg PUBLIC "-//W3C//DTD SVG 1.1//EN" "http://www.w3.org/Graphics/SVG/1.1/DTD/svg11.dtd"><svg t="1709984387436" class="icon" viewBox="0 0 1024 1024" version="1.1" xmlns="http://www.w3.org/2000/svg" p-id="949" xmlns:xlink="http://www.w3.org/1999/xlink" width="200" height="200"><path d="M443.392 729.6512c-12.7488 0-25.4464-3.1744-36.7104-9.216a77.3632 77.3632 0 0 1-41.0112-68.608V401.7152c0-28.672 15.6672-54.9376 40.9088-68.5056 10.8032-5.8368 22.8352-8.96 34.816-8.96 17.2032 0 33.9968 6.3488 47.36 17.92l182.4768 121.5488c22.8352 10.5472 37.5808 35.1232 37.5808 62.9248 0.1024 25.9584-12.8512 50.176-34.6112 64.7168l-187.6992 125.1328c-12.8 8.6016-27.7504 13.1584-43.1104 13.1584z m-2.3552-330.496c-0.7168 0.7168-1.0752 1.5872-1.0752 2.56v250.3168c0 1.28 0.7168 2.3552 1.8944 3.0208 0.512 0.3072 1.024 0.4096 1.536 0.4096 0.6656 0 1.3312-0.2048 1.8944-0.5632l187.8528-125.1328c0.4608-0.3072 0.8704-0.768 1.1264-1.28L442.624 400.64l-1.5872-1.4848z" fill="#1D85ED" p-id="950"></path><path d="M515.0208 907.0592c-52.6336 0-103.7312-10.3424-151.808-30.6688a388.84352 388.84352 0 0 1-123.904-83.5584 389.06368 389.06368 0 0 1-83.5584-123.9552c-20.3776-47.9744-30.6688-99.072-30.6688-151.808 0-76.032 21.9136-149.76 63.3344-213.1968a36.79232 36.79232 0 0 1 31.0272-16.8448c7.2192 0 14.2336 2.0992 20.3264 6.0928a36.72576 36.72576 0 0 1 16.0256 23.3472c2.048 9.728 0.2048 19.6608-5.2736 28.0064-33.536 51.3024-51.2512 111.0016-51.2512 172.5952 0 84.2752 32.8704 163.6352 92.5696 223.4368 59.5968 59.648 138.9056 92.4672 223.2832 92.4672 36.7616 0 72.6016-6.1952 106.8032-18.4832l-32.6144-14.08a36.66432 36.66432 0 0 1-19.8144-20.2752c-3.6864-9.216-3.5328-19.3536 0.4096-28.4672a36.864 36.864 0 0 1 33.9968-22.4256c5.0688 0 10.0352 1.024 14.7456 3.072l105.4208 45.5168c12.6976 5.4784 21.1968 17.3056 22.1696 30.8224a36.9664 36.9664 0 0 1-16.4352 34.0992 389.57056 389.57056 0 0 1-214.784 64.3072z m305.5104-175.9232c-6.6048 0-13.056-1.792-18.6368-5.12-17.6128-10.1888-23.6544-32.9728-13.3632-50.6368 27.8016-47.8208 42.4448-102.5536 42.4448-158.3104 0-84.2752-32.8192-163.584-92.4672-223.3344-59.5968-59.648-138.9056-92.4672-223.2832-92.4672-37.7344 0-74.3936 6.5536-109.4144 19.5072l34.0992 14.1312c18.8416 7.7824 27.8528 29.4912 20.0192 48.4864a36.99712 36.99712 0 0 1-34.304 22.8864c-4.864 0-9.6256-0.9728-14.1824-2.816l-107.776-44.6976a36.9664 36.9664 0 0 1-22.7328-30.5664c-1.3312-13.568 4.8128-26.7264 16.128-34.4576 64.512-43.6224 139.8784-66.6624 218.0608-66.6624 52.6336 0 103.7312 10.3424 151.808 30.6688a388.84352 388.84352 0 0 1 123.904 83.5584 389.06368 389.06368 0 0 1 83.5584 123.9552c20.3776 48.2304 30.6688 99.2768 30.6688 151.808 0 68.8128-18.1248 136.448-52.48 195.6352-6.656 11.3664-18.944 18.432-32.0512 18.432z" fill="#515151" p-id="951"></path></svg>